<svg class="svg-icon" style="width: 1em;height: 1em;vertical-align: middle;fill: currentColor;overflow: hidden;" viewBox="0 0 1024 1024" version="1.1" xmlns="http://www.w3.org/2000/svg"><path d="M225.8 404.8a288.4 112 0 1 0 576.8 0 288.4 112 0 1 0-576.8 0Z" fill="#EFB81C" /><path d="M514.2 525.2c-166.4 0-296.8-52.8-296.8-120.4 0-67.4 130.4-120.4 296.8-120.4s296.8 52.8 296.8 120.4c0 67.6-130.2 120.4-296.8 120.4z m0-224c-151.8 0-280 47.4-280 103.6 0 56.2 128.2 103.6 280 103.6s280-47.4 280-103.6c0.2-56.2-128.2-103.6-280-103.6z" fill="#434244" /><path d="M512 575.6c-205 0-365.6-75-365.6-170.8 0-95.8 160.6-170.8 365.6-170.8 205 0 365.6 75 365.6 170.8 0 95.6-160.6 170.8-365.6 170.8z m0-325.2c-192.4 0-349 69.2-349 154.2 0 85 156.6 154.2 349 154.2s349-69.2 349-154.2c0-85-156.6-154.2-349-154.2z" fill="#434244" /><path d="M505.8 242h16.8v50.8h-16.8zM505.8 517.2h16.8V568h-16.8zM756.542 280.634l7.334 15.116-62.44 30.292-7.332-15.114zM332.786 486.194l7.334 15.116-62.98 30.554-7.334-15.114zM700.664 479l62.488 35.77-8.346 14.58-62.488-35.77zM277.186 278.774l62.98 30.548-7.332 15.116-62.98-30.548zM802.8 396.2h66.6v16.8h-66.6zM154.8 396.2H226v16.8H154.8z" fill="#434244" /><path d="M531.8 781.8h-35.2c-4 0-7.2-3.2-7.2-7.2V568h49.6v206.6c0.2 4-3.2 7.2-7.2 7.2z" fill="#57C0EE" /><path d="M154.8 410.4v-5.8h-8.4v-11h17.2l-0.4 8.8v2.2h-8.4v5.8z" fill="#434244" /><path d="M204.4 487.4v130c0 13.8-11.2 24.8-24.8 24.8-13.8 0-24.8-11.2-24.8-24.8V404.6c0 30.2 18 58.4 49.6 82.8z" fill="#57C0EE" /><path d="M869.2 410.4v-5.8h-8.4v-0.6-1.6l-0.6-8.8h17.2v11h-8.4v5.8z" fill="#434244" /><path d="M869.2 404.6v212.8c0 13.8-11.2 24.8-24.8 24.8-13.8 0-24.8-11.2-24.8-24.8v-130c31.6-24.4 49.6-52.6 49.6-82.8z" fill="#57C0EE" /><path d="M514.2 790.2c-18.4 0-33.2-15-33.2-33.2v-197.6h66.4v197.6c0 18.4-14.8 33.2-33.2 33.2z m-16.4-214v180.8c0 9 7.4 16.4 16.4 16.4 9 0 16.4-7.4 16.4-16.4v-180.8h-32.8zM179.6 650.6c-18.4 0-33.2-15-33.2-33.2V404.6h16.8c0 26.4 16 52.8 46.4 76l3.2 2.6v134.2c0 18.2-15 33.2-33.2 33.2z m-16.6-194.2v161c0 9 7.4 16.4 16.4 16.4 9 0 16.4-7.4 16.4-16.4v-126c-13.6-11-24.6-22.8-32.8-35zM844.4 650.6c-18.4 0-33.2-15-33.2-33.2v-134.2l3.2-2.6c30.4-23.4 46.4-49.6 46.4-76h16.8v212.8c0 18.2-14.8 33.2-33.2 33.2z m-16.4-159.2v126c0 9 7.4 16.4 16.4 16.4 9 0 16.4-7.4 16.4-16.4v-161c-8 12.2-19 24-32.8 35z" fill="#434244" /></svg>